<svg xmlns="http://www.w3.org/2000/svg" width="160" height="112" viewBox="0 0 160 112"><g><g clip-path="url(#clip-3fd03ded-58a7-4b94-9ad9-a908e117eaa7)"><path fill="#131212" d="M12.117 75.83c0-.65-.26.782-.39 1.304-.13.651-.261 1.303-.522 1.824-1.954 4.17-6.384 6.645-11.075 6.254 3.91-2.215 6.776-6.775 10.033-10.033 1.303-1.303 1.954-1.954 2.345-3.909 0-.651.912-3.257 0-1.954-.651 1.043-.912 2.346-1.824 3.387C7.948 75.831 4.3 77.134 0 76.222c4.04-1.565 7.687-5.994 11.075-8.73 1.563-1.043 2.215-1.564 2.736-3.518.13-.652 1.303-3.257.26-2.084-.781 1.172-1.172 2.345-2.214 3.517C8.599 68.404 5.08 68.925.782 68.013c4.3-1.303 8.339-5.472 11.987-7.687 1.563-1.043 2.475-1.433 3.127-3.257.13-.652 1.433-2.737.521-1.955-1.042.912-1.433 2.085-2.606 2.867-3.257 2.345-7.427 2.996-11.075 1.173 4.56-.652 8.73-4.17 12.639-5.995 1.693-.91 2.605-1.302 3.387-2.865.26-.652 1.824-2.737.652-1.825-1.043.782-1.694 1.955-2.736 2.606-3.649 2.084-7.818 2.215-11.336.13 2.736 0 4.56-1.172 6.775-2.345 2.346-1.433 5.212-1.954 7.688-2.997 2.215-.912 2.084-2.214 3.648-3.908-.26.26-.912.782-1.173 1.042-1.303 1.173-2.606 1.694-4.3 2.085-3.517.651-6.514 0-8.99-2.085 4.69.39 8.73-2.085 13.03-2.996.52-.132 3.517-.522 3.517-.913 0 .521 1.955-2.476 2.346-2.867.782-.78-.782.522-1.694 1.173-3.909 2.607-9.772 1.564-12.9-1.693 4.04.911 7.688-1.043 11.858-1.564 1.693-.13 4.56 0 5.733-1.303l1.954-1.954c.13 0 1.042-.652.521-.522-.26.131-.651.522-.782.652-4.56 2.866-10.684 1.955-14.202-2.085 3.258.913 6.124 0 9.642-.26 2.345-.261 4.82 0 7.036-.261 1.173-.13 2.085-1.302 2.997-1.954 1.693-1.303-3.388.912-5.603.652-3.388-.392-6.124-1.955-7.948-4.822 2.997 1.434 5.994.652 9.512.913 4.169.26 6.514 1.172 9.772-.782.52-.26 1.172-.26 1.302-.782.13-.26-.39.13-.52.13-.522 0-.782.26-1.173.391-1.694.521-3.388.521-5.082.13-3.257-.65-5.863-2.475-7.296-5.472 3.648 1.954 9.772 1.954 13.81 2.736 1.955.391 2.737.652 4.43-.26.522-.26 3.388-1.043 1.825-1.043-1.433 0-2.606.652-4.04.521-4.56-.52-7.296-3.127-9.12-6.774 3.649 2.344 9.512 2.866 13.55 4.038 1.955.651 2.607 1.042 4.561.391.521-.26 3.127-.782 1.694-.782-1.303-.26-2.476.26-3.648-.13-4.43-1.173-6.906-3.909-8.339-7.948 2.736 2.476 5.733 2.476 8.86 3.909 1.433.651 5.342 3.518 6.905 3.127 1.303-.26 2.606-.651 4.04-1.042-5.994-.13-11.206-2.997-11.857-8.991 2.345 2.346 4.82 2.867 7.557 4.3 1.563.782 3.518 2.476 5.342 3.388.651.39 1.433.651 2.085.782 1.042.13 2.736-.392 3.908-.521-2.345-.392-4.43-1.173-5.993-2.346-2.476-1.824-3.909-4.56-4.43-8.078 1.303 1.564 2.736 2.736 4.43 3.778 2.085 1.434 4.3 2.736 6.384 4.17.652.521 1.955 1.955 2.997 2.084h1.564c.912-.13 1.693-.13 2.475-.13C74.137 10.555 70.62 6.907 70.62.653c1.694 3.127 4.56 4.04 7.166 6.254.782.912 1.564 1.693 2.215 2.345 1.954 1.954 3.388 3.127 7.166 3.127C84.17 11.205 81.303 8.99 80 5.994 79.218 4.3 78.958 2.215 79.35 0c.26.521.39.782.651 1.173 1.564 3.127 4.951 4.951 7.166 7.687 0 .13.13.26.26.39.652.913 2.476 3.65 3.258 3.65.521 0 1.173.13 1.824.26.782 0 1.694.26 2.476.52-.912-.39-1.694-.91-2.476-1.302-2.606-1.824-4.69-4.56-5.081-7.687-.13-.652-.13-1.433 0-2.215 0-.652.13-1.303.39-1.955.782 2.606 2.346 3.909 4.17 5.994.26.13.39.391.521.521 1.824 1.954 2.997 4.3 4.56 6.384 1.173 1.434 2.997 1.564 4.691 2.215-4.56-2.997-7.687-8.338-5.212-13.811.652 3.519 2.997 5.342 4.69 8.34.522.65 2.607 6.644 3.78 6.644 1.302.521 2.605 1.173 3.908 1.694-4.951-3.127-6.905-9.251-4.17-14.593.522 3.648 2.346 5.733 3.78 8.86 1.042 2.085 1.693 4.43 2.735 6.514.652 1.304 3.388 2.215 4.56 2.997-4.69-3.648-6.905-10.163-3.126-15.244 0 3.779 1.693 6.254 2.996 9.25.912 2.346 1.303 4.952 2.215 7.167.261.782 2.867 2.084 3.649 2.736-4.56-3.909-4.56-10.814-.912-15.114-.391 3.388.781 5.602 1.563 8.6.652 2.345.26 6.253 1.564 8.208.781 1.173 2.345 2.215 3.517 3.127-4.169-4.04-3.778-11.466.391-15.244-.651 3.257.391 5.732.782 8.73.26 2.474-.39 6.384.652 8.469.651 1.302 2.215 2.475 3.127 3.517-3.388-5.211-2.606-11.335 2.084-15.244-1.433 3.909-.13 8.86-.39 13.29 0 .912-.391 3.778.26 4.17h-.13c.781 1.042 1.563 2.214 2.345 3.257-1.954-5.603-.912-11.075 4.17-14.333-1.694 3.649-1.173 9.121-1.955 13.29-.39 2.215-.521 3.518.521 5.472.391.652 1.564 3.388.912 1.434-1.954-5.603.912-11.075 5.733-13.42-2.345 4.039-2.866 11.074-3.909 15.504-.52 1.955 1.043 4.04 1.694 5.864-1.824-6.124.912-11.987 6.645-14.202-2.085 2.866-2.085 5.993-3.257 9.25-.782 2.216-2.606 5.082-2.476 7.427.391 1.303.782 2.736 1.173 4.04 0-1.043-.26-2.216-.13-3.388.52-4.69 4.3-8.339 8.73-9.25-2.737 2.344-2.867 5.471-4.43 8.468-1.043 2.215-2.346 4.17-3.128 6.254-.521 1.433.391 4.039.521 5.602 0-6.514 3.258-11.596 9.642-12.377-2.736 2.345-3.388 5.342-5.081 8.208-1.173 1.955-2.606 3.779-3.779 5.864-.782 1.172-.13 3.778-.13 5.21.39-1.041.26-2.344.651-3.386 1.694-4.43 5.473-7.297 10.424-7.297-2.997 1.955-4.04 4.69-5.994 7.427-1.303 1.694-4.82 4.17-4.82 6.253 0 1.695-.13 3.128-.261 4.692.912-6.124 5.472-10.685 12.117-10.033-3.127 1.694-4.43 4.3-6.775 6.905-1.173 1.304-5.212 3.779-5.472 5.603-.261 1.433-.522 2.997-.652 4.43.521-1.042.652-2.215 1.303-3.127 2.606-3.778 6.906-6.124 11.596-4.821-2.866 1.043-4.43 3.127-6.775 5.342-1.824 1.824-5.342 3.128-6.515 5.212-.782 1.433-.912 3.388-1.303 4.82 2.215-5.471 7.688-9.12 13.942-7.035-4.04.912-6.645 4.43-10.033 6.384-1.303.782-3.778 1.824-4.69 3.127-.652.913-1.173 3.127-1.564 4.17 2.736-5.342 8.99-7.427 14.463-4.951-3.388.39-5.082 2.215-7.818 3.778-2.215 1.303-6.124 1.824-7.687 3.779-.912 1.042-1.434 2.996-2.085 4.3 3.648-4.822 9.511-7.167 14.984-3.91-3.518 0-5.473 1.955-8.34 3.258-2.344.911-6.253 1.173-8.077 2.866-1.043 1.173-2.085 3.388-2.997 4.82 2.866-3.126 5.212-5.21 9.772-5.341 1.563-.13 5.472.652 6.124 2.085.13.26-.652 0-.912 0-.521 0-1.043 0-1.303.13-2.997.52-5.603 2.085-8.47 2.736-1.823.521-4.69.652-6.253 1.694-1.043.781-1.955 2.606-2.867 3.778 2.867-2.214 5.342-3.908 9.642-3.517 1.433.26 5.212 1.303 5.733 2.866 0 .13-1.694-.13-2.346 0-2.996 0-5.602 1.303-8.599 1.694-1.563.13-2.866.26-4.3.39-.651.13-2.084 0-2.084.782 0-.52-.652.391-.912.782-.782.912-1.694 1.564-2.606 2.476 3.388-2.435 8.583-3.838 12.508-1.901-1.65.029-3.3 2.683-4.951 2.943-2.867.521-6.124 0-8.99.391-.652 0-.652.522-1.173.912-1.042.912-2.085 1.564-3.127 2.345 5.081-2.084 10.293-2.084 14.072 2.346 1.303 1.563-2.997-.13-5.082.13-3.909.651-7.557-.651-11.205-.651-1.042 0-3.127 1.823-4.04 2.345 4.561-2.345 10.555-1.043 13.551 3.126 1.173 1.303 1.173 1.564-.52.782-2.216-.911-4.952-.52-7.558-1.041-2.345-.392-5.602-1.956-7.817-1.564-1.303.26-2.737 1.303-3.91 1.823 5.213-.91 10.424.391 12.77 5.213.26.26.52.912.52 1.302 0 .13-1.302-.781-1.823-1.042-1.173-.651-2.346-.782-3.779-1.043-3.388-.52-6.254-1.824-9.381-2.866-1.694-.521-3.518.522-5.081 1.173 5.211-.391 10.423 1.433 12.247 6.384.13.261.391 1.043.391 1.303-.13.26-1.303-.912-1.694-1.172-1.172-.782-2.475-1.173-3.778-1.433-3.258-.783-6.124-2.476-9.12-3.78-1.695-.651-3.519.131-5.213.652 5.603 0 10.033 2.345 11.727 7.558 0 .26.39 1.041.26 1.302-.13.13-1.303-1.042-1.563-1.302-1.042-.913-2.345-1.303-3.648-1.825-3.258-1.172-5.473-2.996-8.209-4.039-1.433-.521-3.127-.912-5.081-.651h-.521c.26 0 .26.13.52.13 1.695.26 3.519.912 5.082 1.824 2.476 1.433 4.43 3.387 4.69 6.254 0 .782.783 2.997-.26 1.564-1.303-1.564-2.866-2.475-4.43-3.257-.521-.26-1.042-.652-1.433-.913-1.303-.782-2.476-1.694-3.648-2.605-.912-.652-1.955-1.434-2.867-2.086-.651-.52-3.648-.781-4.56-.651-.39 0-.521.13 0 .13.13.13.39.13.521.261 2.867.651 5.342 2.346 6.906 4.69.651.913 1.172 2.215 1.433 3.388.26.782.26 1.694.26 2.606 0 .521-1.042-.912-1.693-1.824-.26-.26-.26-.391-.521-.391-1.564-1.564-3.518-2.475-5.212-3.908-.652-.522-1.173-1.043-1.694-1.564-1.042-1.173-2.085-2.215-3.257-2.997-1.173-.782-2.867-.521-4.3-.651-1.042-.261 1.042.39 1.954.781.782.261 1.564.913 2.346 1.564 1.433 1.303 2.606 2.996 3.257 4.952.521 1.563.652 3.126.26 4.95-.13-.13-.26-.26-.26-.39-1.433-2.737-3.778-4.43-6.124-6.776-2.996-2.866-3.909-5.212-7.296-6.124-.652-.13-1.173-.26-1.955-.39.261.13.522.13.652.26.39.13.782.261 1.303.652h.13c4.3 2.606 6.254 7.166 5.212 11.986 0 .261-1.042-1.954-1.564-2.736-1.172-1.564-2.475-3.127-3.778-4.69-1.173-1.433-2.345-2.737-3.388-4.3-1.303-1.824-1.824-1.824-3.909-2.606-.39-.13-.781-.39-1.172-.39-.13-.131-.521-.261-.521-.131.651.65 2.084 1.173 2.866 1.694 1.954 1.563 3.257 4.69 3.518 7.166.13 1.303 0 4.039-.912 4.951-.26.13-.13-.912-.26-1.303-.261-1.042-.913-2.084-1.564-2.997-2.085-2.996-3.648-5.863-5.472-8.99-1.173-1.954-2.737-2.345-4.691-3.257 0 .13.13.13.13.13.782.522 1.694 1.173 2.215 1.955 1.824 2.214 4.69 9.25 1.564 12.247-.26.13-.26-1.172-.26-1.563-.131-.652-.392-1.173-.652-1.695-1.434-3.648-3.649-7.165-5.212-10.813-.912-1.955-1.824-2.476-3.909-3.519-1.303-.65 1.694 1.955 2.215 2.867 1.042 2.084 1.694 4.43 1.303 6.906-.13 1.303-1.954 5.732-1.954 3.648 0-2.476-1.043-3.909-1.824-5.864-.782-2.214-1.303-4.56-1.955-6.774-.521-1.825-2.345-5.212-4.56-5.343-.521-.13.521.652.912 1.043 1.042 1.172 1.694 2.215 2.085 3.778.651 2.736.651 5.733-.652 8.078-.13.391-.39.782-.782 1.173-.26.26-.52 1.303-.651.912-.26-.26.13-2.085.13-2.606-.13-1.694-.912-3.127-1.433-4.82-.651-2.346-.912-5.082-1.563-7.688-.391-1.955-2.085-3.909-3.518-4.56-.261-.26.39.521.651.782.26.26.521.65.652 1.042 1.824 3.387 1.824 8.86-.913 11.856-.26.392-.651.652-.912 1.043-.39.521.13-1.173.13-1.693.131-1.434 0-2.737-.52-4.04-1.434-4.43.26-10.293-3.388-13.68-.652-.652 1.303 3.387 1.173 5.472-.13 2.085-1.564 7.947-4.43 8.208-.261.13.26-.521.39-.782.261-.781.261-1.694.261-2.606.26-3.518-.13-7.426 0-11.074 0-.522.39-1.955 0-2.346-.651-1.042-1.433-2.215-2.345-3.127-.521-.651.39.912.52 1.564.522 1.172.522 2.345.522 3.909-.26 2.996-1.433 5.472-3.778 7.426-.391.391-1.955 1.955-1.173.391 1.042-2.345.782-4.56.782-7.166.26-2.737.912-5.212 1.303-7.818.13-1.433-2.606-6.515-1.694-3.779 1.303 4.952-.912 10.163-5.342 12.379-1.173.521.39-1.303.651-2.085 1.173-3.128 1.173-7.557 2.085-10.684.39-1.824 1.042-3.257.26-4.82-.26-.523-.52-1.043-.65-1.565-.131-.39-.261-1.302-.261-.912-.261.782.39 1.954.39 2.867 0 2.997-1.954 6.645-4.43 8.339-.781.521-3.257 1.433-3.127 1.303 2.215-3.258 2.606-7.167 4.04-10.814.651-1.434 2.214-3.78 1.693-5.343-.26-.651-.52-1.303-.651-2.085-.13-.52-.13-1.823-.391-1.433-.26.391.13 2.085.13 2.476.13 3.127-2.215 6.776-4.95 8.47-.783.39-3.78 1.562-3.258.911 1.172-1.043 1.824-2.215 2.215-3.648.912-2.866 2.084-5.212 3.518-7.818.52-1.042 1.303-2.215 1.563-3.387.391-.912-.651-3.518-.782-4.43-.13-.261.13.52.13.912v1.173c-.26 1.433-.65 2.736-1.302 3.908-1.564 2.997-4.17 4.951-7.427 5.603-.39 0-1.173.52-1.042.13.13-.391 1.303-1.173 1.694-1.433.781-.913 1.172-1.955 1.563-2.997 1.042-2.736 2.736-4.82 4.43-7.426.521-.652 1.694-2.216 1.433-2.867 0-.652.26-3.91-.13-4.17-.13-.13-.13.522-.13.652-.13.52-.13.912-.26 1.303-.131 1.042-.392 1.954-1.043 2.866-1.173 1.955-2.997 3.388-4.951 4.56-.912.522-5.082 1.304-3.779.392 2.215-1.434 2.867-3.91 4.56-5.864 1.434-2.214 3.518-4.17 5.082-6.384.782-1.042.521-3.648.651-4.951m126.515 54.578c.905.447 1.743-1.206 2.476-.376.52.651 1.172 1.042 0 .651a9.027 9.027 0 0 0-2.476-.275zM12.638 77.004c-.13 1.042-.651 2.736-.13 3.648.521.912 2.215 1.954 2.997 2.475 2.866 2.085 5.081 5.082 8.6 6.255-5.473 1.172-9.252-1.564-11.076-6.124-.26-.782-.52-1.694-.39-.13v.911c.13 1.173-.13 2.867.39 3.909.391.912 2.215 1.694 3.127 2.085 3.127 1.563 5.733 4.43 9.251 5.342-5.081 1.433-9.511-.39-11.856-5.081-.13-.521-.391-1.303-.13 0v.911c.26 1.043.26 2.737.781 3.78.521.91 2.476 1.563 3.518 1.954 3.257 1.432 5.863 3.778 9.642 4.43-4.821 2.214-9.381.26-12.118-3.91-1.824-2.605.522 3.91 1.043 4.56.52.913 2.345 1.174 3.518 1.434 3.518.912 6.254 3.258 10.162 3.258-4.3 2.606-9.51 1.563-12.638-2.346-1.173-1.693 1.303 3.779 1.694 4.17.651 1.041 2.345 1.172 3.648 1.303 3.518.651 6.775 2.736 10.424 2.215-4.04 2.996-8.99 2.475-12.639-1.043-2.085-1.954 1.694 3.648 1.824 3.909.912.912 2.606.912 4.04.912 3.778.391 6.905 1.694 10.553 1.173-4.04 3.648-8.86 3.257-13.03-.131-.26 0-.65-.651-.39-.13.912 2.084 2.606 4.69 5.081 4.56 4.04 0 8.73.782 12.378-.39-3.648 4.3-8.339 4.43-13.03 1.694-.39-.261-.26 0 0 .39.913.912 1.825 2.215 2.867 2.996 1.043.913 1.173.913 2.606.652 3.648-.39 8.99-.13 12.248-1.563-2.737 3.648-7.427 5.733-11.857 3.387-2.866-1.563 2.476 3.519 4.43 3.127 1.563-.39 2.866-.912 4.56-1.172 2.867-.652 5.603-.261 8.078-1.955-2.345 4.56-7.166 6.385-11.987 4.56-.781-.39-1.693-.912-.13.261.26.261.521.39.782.652.912.651 2.215 2.084 3.127 2.214 1.042.13 2.475-.781 3.388-1.172 3.127-1.303 7.035-1.433 10.032-3.518-1.694 4.56-6.384 6.905-11.466 5.733-.52-.26-.781-.26.26.39.261 0 .392.261.783.261.912.652 2.084 1.694 3.127 1.954 1.042 0 2.606-1.042 3.518-1.563 3.127-1.563 7.035-1.954 9.641-4.56-1.303 4.821-5.602 7.557-10.814 6.905-.652 0-1.303-.26-.13.26.13.131.52.262.651.262 1.173.652 2.476 1.433 3.648 1.563 1.043.13 2.476-.911 3.388-1.563 2.606-1.954 5.472-2.737 7.948-4.821.26-.39.651-.651.912-1.042-.13 1.303-.521 2.345-.912 3.257-1.694 3.258-5.082 4.82-9.381 4.82 1.433.652 3.257 1.564 4.95 1.694 1.304.131 2.998-1.693 4.43-2.997.392-.26.783-.65 1.043-.91 2.215-1.434 4.56-2.347 6.254-4.692-.39 4.951-3.257 7.557-7.296 8.599-.912.261-1.694.261-2.606.391.782.26 1.694.521 2.606.652.521.13 1.172.26 1.824.39 2.476.392 4.69-3.126 6.384-4.82 1.955-1.694 3.91-2.606 4.951-4.951.261 5.603-3.257 9.25-8.469 10.163.652 0 1.173.26 1.824.26 4.43.391 4.952-1.042 6.906-3.387.39-.391.652-.912 1.042-1.304 2.085-2.214 3.779-3.387 5.082-5.993.651 5.343-1.955 8.599-6.124 10.293-.521.261-1.042.522-1.563.652.52.13 1.042.13 1.563.13 1.173-.13 2.345 0 3.518-.26 1.433-.261 1.954-1.564 2.606-2.867a8.376 8.376 0 0 1 1.303-1.694c1.694-2.345 3.648-4.56 4.56-7.296 1.303 5.081-.782 8.86-4.56 11.074-.652.261-1.043.522-1.564.783.391 0 .912-.13 1.564-.13 1.954-.131 3.909-.26 4.82-1.825.13-.261.13-.39.261-.652 1.824-3.257 4.951-7.035 5.603-10.814 1.954 5.603-.652 9.512-5.082 12.378 2.215-.39 5.212-.521 6.124-2.736.652-1.434 1.173-2.867 1.694-4.3 1.042-2.605 2.997-4.56 2.997-7.687 2.736 5.342.52 9.902-4.04 13.03 2.216-1.173 5.473-.782 6.124-3.388 1.043-3.909 3.518-8.209 3.127-12.508 3.388 4.82 1.694 9.38-2.084 13.16 1.303-.652 2.736-1.304 4.17-1.956.39-.26.911-.13 1.041-.52.652-2.085.522-4.3.912-6.385.652-2.605 1.694-4.69 1.303-7.687 3.518 4.43 2.476 9.12-.912 13.29 1.303-.782 4.04-1.694 4.821-2.997.782-1.563.13-4.69.26-6.515.392-2.736 1.173-5.081.522-7.817 4.17 3.909 3.518 9.12.521 13.42 1.955-1.563 4.69-2.605 4.56-5.472-.39-3.778.13-8.86-1.042-12.248 4.69 3.518 4.3 8.078 2.345 12.9 1.564-1.434 4.04-2.867 3.779-5.213-.521-3.778-.521-9.38-2.345-12.508 4.95 2.997 5.342 7.427 3.517 12.639 1.173-1.173 2.476-2.475 3.127-3.909.913-1.694-.912-4.82-1.302-6.645-.652-2.736-.522-5.342-2.085-7.687 5.212 2.736 6.124 7.165 4.69 12.638 1.434-1.824 3.518-3.909 2.737-6.123-1.434-3.78-2.476-8.6-4.952-11.858 5.342 1.825 7.036 6.255 6.255 11.858 1.172-1.955 3.127-4.3 1.954-6.515-1.824-3.518-3.127-8.47-6.254-11.205 5.733 1.172 7.817 5.732 7.427 11.466.912-2.216 2.605-4.821 1.302-6.907-2.345-3.387-4.169-7.816-7.557-10.422 5.994.78 8.209 4.56 8.86 10.293.261-1.564.912-3.127 1.043-4.561.26-1.824-.782-2.605-2.085-3.909-2.606-2.736-3.909-6.253-6.905-8.078 5.732 0 8.99 4.04 9.51 9.511.262-1.563.522-2.996.652-4.56.13-.39.522-.912.261-1.303-1.173-1.693-3.257-2.866-4.69-4.43-2.085-2.084-3.258-4.039-5.864-5.211 5.994-.391 9.381 2.735 10.684 8.078 0-1.303.912-4.56.26-5.603-.911-1.693-3.778-2.866-5.21-4.169-2.346-1.694-3.65-3.648-6.385-4.56 5.993-1.173 9.641 2.215 11.466 7.296-.13-1.563.39-4.43-.391-5.863-.782-1.433-4.17-2.476-5.603-3.388-2.345-1.563-3.909-3.387-6.775-3.909 5.342-1.824 10.032.782 12.117 5.603-.26-1.563-.13-4.039-.912-5.342-.912-1.433-4.43-2.085-5.993-2.996-2.476-1.304-4.17-2.998-7.167-3.258 5.473-2.345 9.772 0 12.639 4.56-.391-1.693-.652-3.778-1.564-5.212-.912-1.563-4.43-1.693-6.123-2.345-1.694-.52-3.127-1.694-4.952-2.215-.52 0-1.042-.13-1.563-.13-.26 0-.912.26-.912 0 .13-.782 2.997-1.433 3.648-1.433 4.3-.782 6.645 1.563 9.25 4.17-.52-1.564-1.041-3.388-1.954-4.692-1.042-1.432-4.82-1.432-6.514-1.824-1.824-.52-3.258-1.302-5.212-1.563-.521-.13-1.042-.26-1.563-.13-.391 0-1.043.39-.912.13.13-.782 2.736-1.694 3.387-1.954 4.17-1.173 7.427.912 10.033 3.517-.782-1.433-1.434-3.127-2.606-4.43-1.173-1.563-4.821-1.042-6.775-1.302-1.824-.391-3.388-1.043-5.342-1.043-.522-.13-1.043 0-1.564 0-.26 0-.912.522-.912.261 0-.651 2.736-2.085 3.257-2.215 3.91-1.694 7.557.39 10.424 2.606-2.997-5.212-4.17-4.69-9.902-4.821-2.476 0-4.821-.782-7.167 0-1.303.39 1.434-1.954 2.215-2.476 3.649-1.824 7.297-.651 10.424 1.173-.782-.912-1.694-1.954-2.476-2.867-2.215-2.475-5.472-.912-8.73-.651-2.214.13-4.3-.39-6.253.651-1.173.522 1.302-2.084 2.084-2.606 3.388-2.215 7.297-1.563 10.684.131-.912-.781-1.954-1.563-2.736-2.475-2.866-2.476-5.863-.262-9.511.129-2.346.261-6.124 1.173-5.863.783 2.475-4.822 8.078-4.822 12.638-3.258-1.042-.782-3.648-3.648-4.951-3.518-1.824.13-4.17 1.563-6.124 2.085-1.563.65-3.518.65-5.212 1.303-.39.26-.912.651-1.303.912-.26.13-.651.782-.781.521-.26-.52 1.563-2.997 1.954-3.388 2.736-2.996 6.515-3.126 10.293-2.345-1.303-.781-3.257-2.475-4.95-2.736-1.825-.13-4.43 1.955-6.125 2.736-1.563.652-3.518 1.043-4.95 1.824-.522.26-.913.521-1.304.912-.26.261-.521.912-.651.652-.521-.652 1.172-3.127 1.563-3.648 2.346-2.997 6.254-3.91 10.163-3.127-1.563-.782-3.388-2.085-5.212-2.346-1.563-.13-4.169 2.476-5.733 3.258-1.563.911-3.257 1.563-4.82 2.475-.391.391-.782.652-1.173 1.043-.13.13-.26.65-.39.65-.131.261-.131.261-.261.132-.261-.131 0-.913.26-1.564.391-.912.782-1.955 1.042-2.085 1.955-3.257 5.473-4.951 9.382-4.43-1.564-.521-2.997-1.172-4.56-1.563-1.955-.522-4.17 2.084-5.864 3.517-.13.13-.13.13-.26.13-1.564 1.304-3.518 1.955-4.821 3.258-.391.391-.652.652-.912 1.043-.782 1.172-.391-1.043-.13-1.695.13-.781.52-1.563 1.042-2.344.26-.522.651-.913 1.042-1.434a8.344 8.344 0 0 1 4.04-2.475c1.172-.26 2.344-.522 3.647-.522-1.172-.39-2.475-.651-3.648-.912-.39 0-.651-.13-1.042-.13-1.433-.26-2.867 1.042-4.04 2.345-.911.913-1.693 1.955-2.475 2.606-1.563 1.303-3.648 2.215-4.56 4.3-.26.521-.391.39-.391 0v-1.694c.13-1.563.912-2.867 1.694-4.039 1.694-2.085 3.518-2.867 5.733-3.518.39-.13.912-.26 1.303-.39-.261 0-.912-.131-1.303-.131-1.955-.39-4.17-.651-5.212.391-.782.781-1.564 1.824-2.215 2.606-1.303 1.433-2.476 2.736-3.909 4.169-.782.781-1.433 1.563-1.954 2.476-.13.26 0 1.303-.391 1.042-.652-.39-.13-3.388 0-3.909.912-3.518 3.257-5.341 6.254-6.515.651-.26 1.173-.52 1.694-.65-.391 0-1.043-.132-1.694-.132-1.954-.13-4.17-.13-4.951 1.043-1.824 2.606-3.648 5.212-5.733 7.817-.652.913-.652 2.216-1.303 2.997-.26.26-.651-1.563-.651-2.214 0-1.825.39-3.519 1.302-4.952.652-1.303 1.825-2.475 3.258-3.257.521-.391 1.042-.652 1.563-.912.391 0 .912 0 .652-.26-.782-.652-1.955.26-2.997.39-2.866.39-3.648 1.694-4.56 3.778-.26.522-.521 1.303-1.043 2.086-.781 1.693-2.475 3.257-3.257 5.08-.13.522-.13 1.434-.39 1.955-.261.39-.652-1.433-.783-1.954-.39-1.433-.13-2.997.391-4.3.782-2.215 2.085-3.909 4.17-5.212.39-.26.651-.39.912-.52.39-.392.26-.522 0-.522-.912.13-3.779 1.042-4.43 1.303-1.824.782-1.955 3.127-2.606 4.951-.912 2.867-3.257 5.081-3.257 8.34 0 1.041-.912-1.305-.912-1.695-1.434-4.56 1.042-8.078 4.3-10.684-1.695 1.172-5.082.652-5.603 2.736-1.043 3.257-1.955 6.384-2.997 9.381-.26 1.043 0 2.215-.26 3.258-.131.26-1.304-1.695-1.434-2.085-.521-1.303-.521-2.867-.39-4.43.65-3.388 5.341-7.036 2.084-5.473-.652.261-2.997 1.304-3.257 1.564-.391.391-.391 1.955-.522 2.476-.52 3.779-2.345 7.557-1.693 11.335.13 1.173-1.434-1.303-1.564-1.563-1.173-2.215-1.042-5.603-.13-7.818.39-1.172 1.172-1.954 1.954-2.866.391-.391 1.173-1.173.782-.913-.912.261-1.824.913-2.606 1.564-.651.391-2.475 1.043-2.606 2.215-.39 2.085 0 4.56-.13 6.645-.13 1.433-.521 2.475-.652 3.909 0 1.173.652 3.127.13 2.736-2.345-2.085-3.257-4.952-2.735-8.078.13-1.303.39-2.215 1.042-3.257.39-.39.521-.652.651-.913.261-.26.782-.782.522-.65-1.434.91-2.737 1.953-4.04 3.126-1.172 1.043-.26 4.69 0 6.254.13 2.736.13 5.603.522 8.078 0 .39-1.694-1.172-2.085-1.563a8.597 8.597 0 0 1-1.564-3.518c-.52-2.084-.39-4.56.782-6.254 1.955-3.127-1.694.651-2.736 1.823-1.173 1.173-.521 2.216-.13 3.78.521 2.606.39 5.862 1.042 8.729.13.651.391 1.303.782 1.824.39.652-2.215-1.303-2.867-2.085-1.563-2.084-2.215-5.602-1.433-8.338.13-.521.521-.912.782-1.433 0-.391.521-1.043.26-.782-1.172.782-3.387 3.517-3.778 4.69-.26.912 1.042 3.257 1.173 3.909 1.042 2.866.912 6.645 2.606 8.99.781 1.173-1.043-.13-1.694-.52-1.433-.913-2.476-2.477-2.997-4.04-.521-1.303-.782-2.736-.651-4.17.13-1.303 1.302-4.168-.13-1.823-.261.26-.392.52-.522.781-.521.782-1.694 1.955-1.824 2.997-.13.13.39.912.521 1.173.652 1.823 1.564 3.387 2.215 5.081.652 2.345.912 4.56 2.606 6.384.782.913-1.824-.39-2.215-.65-2.345-1.434-3.778-3.91-4.17-6.776-.13-1.173.522-4.56.13-3.649-.65 1.043-1.563 2.607-1.953 3.91-.782 2.084 1.693 4.56 2.736 6.644.912 2.215 1.303 4.56 3.127 6.385 1.042 1.042-1.043.13-1.694-.13-4.04-1.564-5.472-5.864-5.212-10.294.13-1.693-.782 1.303-1.303 2.867-1.303 3.648 2.736 6.514 4.3 9.772.782 1.563 2.997 4.039 2.345 4.039-4.43-.261-7.427-4.56-7.817-8.73-.13-3.648-1.825 3.778-.522 5.342 2.476 3.127 5.082 7.818 8.47 9.642-5.343 0-8.73-3.388-9.512-8.47 0-.911 0-2.084-.26-.13-.13.391-.13.782-.13 1.173-.261 1.043-1.043 2.866-.652 3.779.651 1.042 1.954 1.954 2.736 2.606 2.866 2.345 4.56 5.602 7.817 7.166-5.211.65-9.12-2.606-10.293-7.427-.26-.652-.26-1.433-.39.13v1.043z"/></g></g></svg>